<svg xmlns="http://www.w3.org/2000/svg" viewBox="0 0 295 295" role="img">
  <path d="M236.95 263.861C237.341 263.861 237.513 264.358 237.201 264.596C212.348 283.664 181.247 295 147.5 295C113.752 295 82.6518 283.667 57.7981 264.596C57.4867 264.358 57.6588 263.861 58.0494 263.861H236.953H236.95ZM275.426 220.977C270.274 229.928 264.208 238.286 257.36 245.926C257.1 246.216 256.729 246.38 256.341 246.38H38.6614C38.2735 246.38 37.902 246.216 37.6425 245.926C30.792 238.286 24.7281 229.928 19.5765 220.977C19.3662 220.614 19.6312 220.158 20.0518 220.158H274.95C275.371 220.158 275.636 220.614 275.426 220.977ZM292.082 176.836C290.329 185.52 287.813 193.927 284.609 201.988C284.442 202.403 284.038 202.676 283.59 202.676H11.4094C10.9615 202.676 10.5572 202.403 10.3906 201.988C7.18657 193.93 4.67088 185.522 2.91727 176.836C2.84899 176.498 3.10848 176.181 3.45537 176.181H291.544C291.888 176.181 292.151 176.498 292.082 176.836ZM146.503 0.00328822C228.422 -0.537544 294.999 65.7062 294.999 147.5C294.999 151.095 294.871 154.659 294.62 158.191C294.601 158.478 294.36 158.699 294.073 158.699H0.928759C0.641954 158.699 0.401584 158.478 0.382464 158.191C0.131168 154.706 0.00278846 151.185 5.69817e-05 147.634C-0.0709614 67.3806 66.252 0.535926 146.503 0.00328822Z" fill="#FF983B"/>
</svg>
