<svg xmlns="http://www.w3.org/2000/svg" viewBox="0 0 64 64" role="img" aria-label="GitLab">
  <path fill="#E24329" d="M32 53.2 7.8 35.6a3.2 3.2 0 0 1-1.2-3.6l4.2-13a1.6 1.6 0 0 1 3 0l4 12.4h28.4l4-12.4a1.6 1.6 0 0 1 3 0l4.2 13a3.2 3.2 0 0 1-1.2 3.6L32 53.2z"/>
  <path fill="#FC6D26" d="M32 53.2 17.8 31.4h28.4L32 53.2z"/>
  <path fill="#FCA326" d="m17.8 31.4-4-12.4a1.6 1.6 0 0 0-3 0l-4.2 13a3.2 3.2 0 0 0 1.2 3.6L32 53.2 17.8 31.4zM46.2 31.4l4-12.4a1.6 1.6 0 0 1 3 0l4.2 13a3.2 3.2 0 0 1-1.2 3.6L32 53.2l14.2-21.8z"/>
</svg>
